HIERARCHY
ROOT Hips
{
  OFFSET 36.1783 96.2746 137.161
  CHANNELS 6 Xposition Yposition Zposition Zrotation Xrotation Yrotation
  JOINT ToSpine
  {
    OFFSET -2.69724 7.43032 -0.144315
    CHANNELS 3 Zrotation Xrotation Yrotation
    JOINT Spine
    {
      OFFSET -0.0310711 10.7595 1.96963
      CHANNELS 3 Zrotation Xrotation Yrotation
      JOINT Spine1
      {
        OFFSET 13.1342 3.43533 0.764692
        CHANNELS 3 Zrotation Xrotation Yrotation
        JOINT Neck
        {
          OFFSET 29.8703 7.82586 -0.130764
          CHANNELS 3 Zrotation Xrotation Yrotation
          JOINT Head
          {
            OFFSET 9.52751 0.295786 -0.907742
            CHANNELS 3 Zrotation Xrotation Yrotation
            End Site
            {
              OFFSET 16.4037 0.713936 2.7358
            }
          }
        }
        JOINT LeftShoulder
        {
          OFFSET 27.5574 4.95586 2.47156
          CHANNELS 3 Zrotation Xrotation Yrotation
          JOINT LeftArm
          {
            OFFSET 1.20734 -0.998971 20.1238
            CHANNELS 3 Zrotation Xrotation Yrotation
            JOINT LeftForeArm
            {
              OFFSET 26.8049 -0.0536703 -0.155908
              CHANNELS 3 Zrotation Xrotation Yrotation
              JOINT LeftHand
              {
                OFFSET 26.6817 0 0.320147
                CHANNELS 3 Zrotation Xrotation Yrotation
                End Site
                {
                  OFFSET 18.6119 0 0.382219
                }
              }
            }
          }
        }
        JOINT RightShoulder
        {
          OFFSET 27.5927 4.71444 -2.65209
          CHANNELS 3 Zrotation Xrotation Yrotation
          JOINT RightArm
          {
            OFFSET 2.83739 -1.17114 -18.7564
            CHANNELS 3 Zrotation Xrotation Yrotation
            JOINT RightForeArm
            {
              OFFSET 28.839 -0.0548439 1.22491
              CHANNELS 3 Zrotation Xrotation Yrotation
              JOINT RightHand
              {
                OFFSET 26.5114 0 -0.101894
                CHANNELS 3 Zrotation Xrotation Yrotation
                End Site
                {
                  OFFSET 18.2168 0 0
                }
              }
            }
          }
        }
      }
    }
  }
  JOINT LeftUpLeg
  {
    OFFSET -4.76168 -1.9167 -10.2353
    CHANNELS 3 Zrotation Xrotation Yrotation
    JOINT LeftLeg
    {
      OFFSET 2.55951 -42.0585 -8.02213
      CHANNELS 3 Zrotation Xrotation Yrotation
      JOINT LeftFoot
      {
        OFFSET 3.16357 -42.5282 -3.95426
        CHANNELS 3 Zrotation Xrotation Yrotation
        JOINT LeftToeBase
        {
          OFFSET 0.346054 -6.02161 12.8035
          CHANNELS 3 Zrotation Xrotation Yrotation
          End Site
          {
            OFFSET 0.134235 -1.35082 5.13018
          }
        }
      }
    }
  }
  JOINT RightUpLeg
  {
    OFFSET -4.94151 -1.41743 10.6446
    CHANNELS 3 Zrotation Xrotation Yrotation
    JOINT RightLeg
    {
      OFFSET -2.56294 -42.0364 -7.94377
      CHANNELS 3 Zrotation Xrotation Yrotation
      JOINT RightFoot
      {
        OFFSET -3.0952 -42.555 -4.02241
        CHANNELS 3 Zrotation Xrotation Yrotation
        JOINT RightToeBase
        {
          OFFSET -0.0828122 -6.13587 12.8035
          CHANNELS 3 Zrotation Xrotation Yrotation
          End Site
          {
            OFFSET -0.131328 -1.35082 5.13018
          }
        }
      }
    }
  }
}
MOTION
Frames:	15
Frame Time:	0.0333333
31.4994 91.903 151.53 74.721 4.23164 -0.682401 -70.1915 0 88.8779 105.206 74.6696 -14.5789 1.32594 26.8506 -1.78925 -127.813 31.3201 166.652 164.274 70.4497 -133.748 1.20477 -8.7336 -18.8104 -76.7312 32.8228 -142.498 -0.208513 0.028579 -111.49 1.7951 0.112212 6.98526 -0.949456 11.4454 21.0306 -57.8653 -48.2702 119.75 -10.0839 -4.43971 113.478 -0.22715 -0.0109847 0.560372 -44.0732 17.1138 86.023 -2.7389 32.1179 -16.1638 -11.0469 4.22753 2.08692 4.52779 -10.2748 2.82004 -40.2364 -20.9043 70.878 4.52401 56.9705 2.10903 -3.32467 -25.1663 1.85216 2.1367 -22.6234 -17.151 
30.8472 91.1786 152.369 75.2809 4.70604 -0.771713 -70.1915 0 88.8779 106.082 72.6486 -16.2266 0.701531 25.2194 -3.02948 -123.333 28.6928 164.628 169.872 69.2343 -136.425 1.19487 -8.76439 -18.2911 -75.6976 33.0257 -141.149 0.115053 -0.108317 -112.161 1.54673 0.102784 7.1075 -0.79945 10.8206 20.1729 -67.2553 -47.8546 111.164 -9.47662 -4.79125 116.578 -0.154182 -0.00948613 0.196013 -45.3251 17.4967 88.0567 -2.23352 30.4123 -18.2368 -8.832 1.25062 1.25282 4.54277 -11.0636 7.63824 -38.6552 -19.701 73.063 4.93363 59.6896 0.613447 -3.47786 -27.0436 1.93238 1.99182 -22.0015 -22.1742 
29.9472 90.5969 152.611 75.6626 4.27998 -0.876498 -70.1915 0 88.8779 106.994 71.2128 -18.2123 0.436521 23.5796 -2.1958 -121.327 27.5357 165.093 171.663 68.2273 -136.303 1.14616 -9.40235 -19.1818 -74.5509 33.5896 -140.589 2.03767 -0.947613 -112.755 1.17923 0.0883399 7.27963 -0.279107 10.2145 15.3627 -75.6664 -48.5871 105.744 -7.42587 -4.15067 119.128 -0.0909839 -0.00761802 0.0604567 -45.9409 17.4584 88.2015 -1.81925 30.0792 -19.4758 -7.04749 -0.828073 0.7036 5.22704 -12.6033 10.3223 -37.2785 -18.5624 74.8634 5.17953 61.1754 -0.277084 -4.07571 -27.6025 1.89078 1.8945 -22.3304 -23.9479 
29.1393 90.4445 152.316 75.2912 3.38448 -0.681947 -70.1915 0 88.8779 104.644 70.7404 -15.9857 1.25948 22.4924 -1.35246 -119.865 26.8265 164.427 174.368 68.1752 -137.892 1.01218 -10.6935 -21.1989 -72.7102 33.5055 -141.479 3.33167 -1.44392 -111.85 1.06212 0.0769557 6.862 0.160384 9.04918 10.8024 -83.2654 -49.2807 101.219 -5.02749 -3.17651 122.478 -0.0983445 -0.0055672 0.414016 -46.159 17.8006 88.8118 -1.41969 29.0631 -21.6448 -7.02852 -1.18437 0.656149 6.80138 -15.3218 12.4515 -36.0473 -18.0177 75.2277 5.17854 61.1926 -0.381463 -4.28725 -27.4393 1.85828 1.91183 -22.0969 -24.135 
28.3786 90.5526 151.835 74.844 1.80079 -1.48522 -70.1915 0 88.8779 104.011 70.2197 -15.6762 1.04867 21.9469 -1.8144 -118.358 25.8603 162.168 178.353 68.5623 -141.342 0.828048 -12.1332 -22.4987 -70.6305 33.2853 -142.384 4.37345 -1.792 -110.92 0.799288 0.0680058 7.10413 0.268782 7.83018 9.50244 -89.3786 -48.5648 98.8037 -1.83265 -1.27197 126.023 -0.00143481 -0.00325464 0.215679 -46.6069 17.6583 90.7857 -0.984231 28.2847 -22.7789 -6.77781 -2.0796 0.501968 7.25642 -16.0958 13.6731 -34.5289 -17.9426 76.3138 5.05431 60.7825 -0.241945 -4.83484 -26.7024 1.7628 1.76461 -23.4813 -24.4219 
27.5399 90.8923 151.016 74.0189 -0.531118 -2.63058 -70.1915 0 88.8779 102.519 69.708 -14.6678 0.730595 21.1708 -1.83584 -118.261 25.6751 161.766 179.439 68.6649 -143.043 0.725011 -12.9486 -22.5664 -68.5637 34.6889 -143.229 6.62056 -2.51206 -109.617 0.490987 0.0523105 6.96427 0.388044 7.79139 7.9157 -93.097 -49.7702 98.183 1.82506 1.54602 128.509 0.0927484 -0.000946333 0.715791 -46.8948 17.2032 91.5453 -1.09834 28.1428 -22.1721 -6.59176 -2.33026 0.450247 8.1752 -17.5011 14.4777 -32.5723 -16.9314 78.8845 4.7514 59.6572 -0.0493468 -4.975 -25.778 1.71437 1.72947 -23.5579 -25.0176 
26.9263 91.4016 150.044 73.3258 -2.98735 -3.54166 -70.1915 0 88.8779 99.9838 69.1208 -12.5135 1.26523 20.248 -1.97962 -118.093 25.4138 161.187 -177.932 68.8641 -145.678 0.667958 -13.5047 -22.174 -67.0777 35.8176 -144.446 7.23901 -2.59772 -108.625 0.43719 0.0484054 6.78356 0.395769 7.55398 7.74877 -95.1753 -50.6326 99.1933 3.23429 2.85824 130.31 0.16 0.00137552 0.975373 -47.0357 16.8425 90.9229 -1.41668 29.019 -20.2533 -5.31206 -3.29747 0.182198 6.61041 -15.144 14.3315 -31.4355 -15.2656 81.4548 4.20769 57.6932 -0.0741586 -5.71342 -24.4651 1.59567 1.59764 -24.3702 -25.801 
26.554 91.9099 148.854 72.7784 -5.58326 -4.31459 -70.1915 0 88.8779 97.25 68.5899 -10.3994 1.79655 19.1345 -1.21624 -117.757 25.826 161.372 -179.648 69.0629 -143.434 0.714034 -13.1098 -22.2336 -66.5874 36.1007 -145.917 7.33599 -2.46726 -107.512 0.5038 0.0476725 6.30775 0.426773 7.6612 7.34471 -97.2541 -51.7613 99.0381 5.67475 5.17764 131.495 0.263165 0.00556119 0.88781 -47.871 16.9671 90.9497 -1.531 29.4317 -17.4171 -3.76141 -1.36036 0.246049 5.92111 -13.9319 12.2221 -30.9546 -13.5614 83.9455 3.77851 55.4999 0.430669 -5.37377 -23.8044 1.60412 1.54318 -24.7364 -26.0314 
26.2085 92.4487 147.485 72.0429 -8.499 -4.99898 -70.1915 0 88.8779 94.7114 68.3672 -8.03884 1.99619 18.6778 -0.883977 -116.36 26.0306 160.05 -179.622 69.8302 -142.779 0.571264 -14.3649 -22.0253 -66.6429 36.8973 -146.294 9.26128 -3.00636 -106.924 0.266128 0.0382826 6.33959 0.410276 7.33042 7.5003 -100.144 -52.4802 96.7926 7.36549 6.76257 131.694 0.490558 0.0170734 1.8574 -49.2768 17.6372 92.2703 -1.02595 28.6975 -14.801 -3.31914 0.378481 0.379946 4.23778 -10.8586 9.86405 -30.6871 -11.7805 86.218 3.4791 52.7395 1.90538 -4.61972 -23.1039 1.64089 1.37527 -25.8405 -26.574 
26.0726 92.9581 145.951 71.4055 -11.3402 -5.56835 -70.1915 0 88.8779 93.2419 67.9668 -6.52164 2.13313 18.1261 -0.496686 -115.872 26.5383 159.301 -179.921 70.5969 -142.56 0.513239 -14.7649 -22.2414 -67.0897 36.6466 -146.98 10.8747 -3.40649 -106.324 -0.00883878 0.0274173 6.60871 0.485304 6.92942 6.20051 -100.827 -54.87 95.8678 7.25163 6.71368 131.928 0.685938 0.0327709 2.97245 -50.6279 18.3482 93.6924 -0.750071 28.6277 -11.7361 -2.52727 -0.217331 0.214681 2.89319 -8.45165 9.15833 -30.8276 -10.683 87.6246 3.18234 49.8224 2.7998 -3.2726 -23.3172 1.75398 1.45091 -25.3917 -26.1528 
25.9609 93.2895 144.237 70.9781 -13.7579 -5.73649 -70.1915 0 88.8779 90.4754 67.2958 -3.82978 3.21774 17.1707 -0.11775 -116.944 27.1612 159.177 177.232 70.8651 -140.982 0.563091 -14.5879 -21.6332 -66.7292 36.4601 -148.026 10.3085 -3.19108 -106.149 0.0593603 0.0258941 6.50536 0.442866 6.86287 6.83012 -103.129 -54.7457 94.8063 9.14784 8.44831 131.813 0.776555 0.0311 2.58795 -51.839 18.7445 93.6025 -0.94672 29.3035 -8.89727 -1.60732 -0.585113 0.065355 2.88234 -8.04696 7.29064 -31.121 -10.3868 87.8205 2.61781 46.9875 1.76462 -3.36408 -22.0937 1.68229 1.70114 -27.1637 -20.8444 
25.9597 93.5359 142.354 70.7541 -16.3929 -5.89635 -70.1915 0 88.8779 89.7468 66.9342 -2.78055 3.44273 16.6948 0.229115 -117.295 27.3052 159.158 177.189 70.977 -141.305 0.675132 -13.8084 -20.979 -65.6725 36.2103 -149.405 10.9007 -3.30389 -105.808 0.169292 0.027228 5.7179 0.433969 6.8349 6.95734 -104.106 -55.0478 93.9782 9.60697 8.9325 131.978 0.7981 0.030701 2.51043 -53.5116 18.733 93.6435 -1.27048 29.8839 -10.0303 -2.34825 -1.76168 0.0256 3.21211 -9.13098 9.86411 -31.5652 -9.86633 88.4517 2.42735 44.4332 2.36282 -2.87031 -21.5667 1.68592 1.75601 -27.0408 -20.2191 
25.9849 93.5528 140.298 70.0515 -19.3114 -6.56177 -70.1915 0 88.8779 87.2931 66.9687 0.128799 4.03097 16.7069 0.252696 -118.052 27.5762 158.891 178.891 71.4141 -143.549 0.704191 -13.6807 -20.4769 -65.0321 36.2089 -150.34 10.8862 -3.2853 -105.742 0.238473 0.0293068 5.42864 0.459178 6.8135 6.5539 -104.877 -55.6825 92.5622 8.77986 8.40549 132.818 0.877224 0.040807 3.13877 -54.8062 18.6404 94.7833 -1.10129 29.4991 -9.23376 -5.1106 -4.57673 0.016272 4.03027 -9.99602 6.62434 -31.3462 -9.28025 89.6245 2.30826 41.9376 3.32169 -2.39163 -21.2721 1.69773 1.78101 -26.7707 -20.1672 
26.0412 93.7049 138.126 70.0871 -21.8896 -7.24723 -70.1915 0 88.8779 86.6202 66.9699 0.758514 4.23656 16.6677 0.391598 -118.288 27.6815 158.986 179.808 71.5402 -144.611 0.699271 -13.7534 -20.3774 -64.5812 36.2912 -150.298 10.4 -3.16608 -105.887 0.28731 0.0305745 5.18641 0.454644 6.84799 6.64471 -104.885 -56.2293 91.8277 8.91755 8.48379 132.642 1.07524 0.059382 3.99486 -56.8586 18.1939 97.8592 -0.620204 27.9917 -11.3698 -5.9511 -4.11909 0.143416 6.18257 -14.1318 9.63291 -32.0363 -9.30129 90.8465 2.18911 39.103 4.24261 -1.81479 -21.15 1.72548 1.90439 -25.6148 -19.3116 
25.9227 93.6815 135.838 69.9016 -24.2094 -7.71677 -70.1915 0 88.8779 85.2152 67.1557 1.73022 4.88199 16.6648 1.21045 -119.343 27.8271 159.188 -178.557 71.6306 -146.763 0.674214 -13.8782 -20.8745 -65.028 36.0549 -149.642 10.9246 -3.32158 -105.856 0.172567 0.0282722 5.10905 0.48633 6.74073 6.10378 -104.796 -57.5369 91.3322 9.39285 8.7454 132.028 1.28783 0.079291 4.73944 -57.4567 17.956 99.7139 -1.15175 28.7179 -12.3505 -5.36898 -6.26139 -0.181578 7.56244 -16.5131 12.3837 -32.397 -8.67057 92.5829 1.91697 36.3504 5.00405 -0.179035 -21.3622 1.837 1.7514 -25.8117 -21.2987 
